<svg xmlns="http://www.w3.org/2000/svg" xmlns:xlink="http://www.w3.org/1999/xlink" viewBox="0 0 1037.86 477.9"><defs><style>.cls-1{fill:url(#Degradado_sin_nombre_15);}.cls-2{fill:#ff2023;}.cls-3{fill:url(#Degradado_sin_nombre_14);}.cls-4{fill:url(#Degradado_sin_nombre_14-2);}.cls-5{fill:url(#Degradado_sin_nombre_14-3);}.cls-6{fill:url(#Degradado_sin_nombre_14-4);}.cls-7{fill:url(#Degradado_sin_nombre_14-5);}.cls-8{fill:url(#Degradado_sin_nombre_14-6);}.cls-9{fill:url(#Degradado_sin_nombre_14-7);}.cls-10{fill:url(#Degradado_sin_nombre_14-8);}.cls-11{fill:#fff;}</style><linearGradient id="Degradado_sin_nombre_15" x1="516.3" y1="500.11" x2="516.3" y2="439.06" gradientUnits="userSpaceOnUse"><stop offset="0" stop-color="#1f3690"/><stop offset="1" stop-color="#0075b7"/></linearGradient><linearGradient id="Degradado_sin_nombre_14" x1="675.32" y1="206.32" x2="675.32" y2="130.91" gradientUnits="userSpaceOnUse"><stop offset="0.25" stop-color="#1f3690"/><stop offset="1" stop-color="#0075b7"/></linearGradient><linearGradient id="Degradado_sin_nombre_14-2" x1="990.36" y1="206.32" x2="990.36" y2="130.91" xlink:href="#Degradado_sin_nombre_14"/><linearGradient id="Degradado_sin_nombre_14-3" x1="516.3" y1="206.32" x2="516.3" y2="130.91" xlink:href="#Degradado_sin_nombre_14"/><linearGradient id="Degradado_sin_nombre_14-4" x1="913.04" y1="206.32" x2="913.04" y2="130.91" xlink:href="#Degradado_sin_nombre_14"/><linearGradient id="Degradado_sin_nombre_14-5" x1="763.33" y1="206.32" x2="763.33" y2="130.91" xlink:href="#Degradado_sin_nombre_14"/><linearGradient id="Degradado_sin_nombre_14-6" x1="838.67" y1="206.32" x2="838.67" y2="130.91" xlink:href="#Degradado_sin_nombre_14"/><linearGradient id="Degradado_sin_nombre_14-7" x1="587.42" y1="206.32" x2="587.42" y2="130.91" xlink:href="#Degradado_sin_nombre_14"/><linearGradient id="Degradado_sin_nombre_14-8" x1="916.43" y1="206.32" x2="916.43" y2="130.91" xlink:href="#Degradado_sin_nombre_14"/></defs><title>LOGO VECTOR JORDAN</title><g id="Capa_2" data-name="Capa 2"><g id="Capa_1-2" data-name="Capa 1"><rect class="cls-1" x="5.55" y="428.98" width="1021.49" height="48.92"/><path class="cls-2" d="M458.7,71.31c-.54,9.34-.81,18.71-1.71,28-.8,8.31-2.31,16.55-3.5,24.82-1,6.9-1.86,13.82-3,20.69-1,5.91-2.29,11.76-3.44,17.64-1,5.3-2,10.62-3.1,15.9q-3,13.67-6.14,27.28c-1.9,8-3.92,16-6,24q-2.87,10.95-6,21.84-3.52,12.45-7.26,24.84-3.37,11.13-7,22.18c-2.88,8.76-5.81,17.5-8.88,26.19-2.9,8.23-5.81,16.47-9.06,24.57-6.21,15.47-12.21,31.06-19.15,46.2a246.49,246.49,0,0,1-17.72,32.58c-6.23,9.5-13.76,18.23-21.38,26.7-6,6.63-13.59,9.44-22.58,10.58-7.24.91-14.45-1.22-21.09-3.85-12.74-5.06-22.08-13.35-31.16-23.12-4.14-4.46-8.33-8.89-12.16-13.61-2-2.53-1.72-5.84-.66-8.79,1.44-4,5-4.54,10-2.25,5.52,2.47,10.48,6.18,15.81,9.14,5.83,3.24,12.22,4.61,18.94,5.66,10.42,1.63,17.81-.89,25.19-8.18,7.54-7.88,13.32-17,18.85-26.35,8.54-14.42,15.24-29.71,21.32-45.27,6.35-16.27,12.57-32.6,18.36-49.07,4.16-11.84,7.55-23.95,11.23-36,3.42-11.16,6.89-22.31,10.11-33.53,2.52-8.77,4.79-17.61,7-26.46q3.95-15.85,7.55-31.8c1.23-5.46,2.08-11,3.09-16.5q1.62-8.85,3.22-17.69c.62-3.38,1.32-6.74,1.82-10.14,1.11-7.49,2.3-15,3.13-22.49,1.48-13.49,3-27,3.94-40.51a114.64,114.64,0,0,0-.31-21c-1-8.89-7.71-16.23-17.74-17.89a56.3,56.3,0,0,0-24.26,1c-8.54,2.3-15.68,7.2-22,13.33-21.28,20.66-37.3,45-48.82,72.12-4.62,10.89-7.85,22.4-11.25,33.77-3.73,12.49.31,23.6,7.26,33.92,2.14,3.18,4.55,6.19,6.8,9.3a14.41,14.41,0,0,1,2.23,3.45c2.13,6.21.92,8.61-4.86,8.35a15.17,15.17,0,0,1-8.15-2.67C295.56,190,285.56,181,277.89,169.68c-6.91-10.2-8.22-21.29-5.55-33,5.11-22.44,15.9-42.41,27.41-62a253.89,253.89,0,0,1,38.6-49.86C346,17,353.81,9.33,363.51,4s19.67-4.87,29.59-.79c5.36,2.22,10.79,3.84,16.59,3.56s10.9,1.7,15.63,5.06,10.06,6.54,15,9.94a38.35,38.35,0,0,1,14.22,18.74C458.29,50.43,458.65,60.82,458.7,71.31Z"/><path class="cls-2" d="M547.08,322.94a.38.38,0,0,1-.41-.17,64,64,0,0,1-4.36-7.14c-2.14-4.63-3.68-9.54-5.92-14.11-2.09-4.27-1.2-8.06.67-11.87a40.28,40.28,0,0,1,12-14.24c8.56-6.49,17-13.12,27-17.42,2.7-1.17,5.41-2.34,8.17-3.37A14.06,14.06,0,0,0,593.47,244a14.23,14.23,0,0,1,.62-1.84,1.2,1.2,0,0,1,2.11-.22c3.54,5.29,6.54,5.82,13.37,3.8a113.21,113.21,0,0,1,14.1-3.08,10.12,10.12,0,0,1,9.6,3.78c4.48,5.78,8.78,11.72,12.72,17.88,3.17,4.95,2.58,10.81,1.29,16.11-2.92,11.95-9.16,22.31-17,31.68a25.4,25.4,0,0,1-15.38,9.22,11.89,11.89,0,0,1-6.81-1.17,63.29,63.29,0,0,1-8.82-5.89,2.16,2.16,0,0,1-.65-2,3.31,3.31,0,0,1,2.07-1.71,49,49,0,0,1,7.37.25,10.53,10.53,0,0,0,9.31-3.26c5.8-5.93,11.33-12,15.37-19.34a39.79,39.79,0,0,0,5-23.28c-.38-4.18-2.55-6.36-6.76-7.36-9.12-2.15-18-1-26.77,1.76-3.33,1-6.22,3.25-7.26,6.86-2.29,8-4.41,16.06-6.58,24.1-.93,3.4-2,6.78-2.68,10.23-1.22,5.74,1,10.27,5,14.37,1.82,1.87,2.93,4.48,4.17,6.86,1.68,3.18,2.82,6.72,4.83,9.66,4.94,7.21,10.34,14.1,15.4,21.23a276.45,276.45,0,0,0,29.37,35.46c3.36,3.38,7.45,6.05,11.34,8.84,3.09,2.22,6.16,1.15,9.07-.65a15.31,15.31,0,0,1,2.24-1.42,3.39,3.39,0,0,1,2.43-.28,2.45,2.45,0,0,1,.39,2.28c-2.49,5.3-4.9,10.65-7.78,15.74-1.25,2.2-8.76,2.21-11.72.26A31.28,31.28,0,0,1,647,408.3a476.51,476.51,0,0,1-45.28-56.37c-4.66-6.75-9.26-13.54-13.89-20.3a27.54,27.54,0,0,0-2-2.54c-2.63-2.83-3.51-2.86-5.07.78-2.3,5.38-4.19,10.95-6.07,16.51-2.08,6.13-3.75,12.41-6,18.49-2.85,7.83-6.06,15.53-9.1,23.3-1.24,3.17-2,3.45-4.77,1.52A11.59,11.59,0,0,1,550.34,377c1.87-6.69,3.19-13.54,4.79-20.31.19-.8.57-2,1.08-2.15a3.54,3.54,0,0,1,2.59.71c3.59,2.71,4.34,2.4,5.74-1.91,2.72-8.39,5.38-16.83,8.52-25.07,2.41-6.3,2.92-12.3.11-18.56-1.42-3.17-.41-6.94,2.73-8.1,5.64-2.08,7.21-6.61,8.25-11.61,1.16-5.56,2.16-11.17,3-16.79A5.49,5.49,0,0,0,586,269c-.55-.55-2.69.13-3.91.7-9.29,4.32-18.44,8.88-26,16a48.24,48.24,0,0,0-10.35,15.31c-1.74,3.81.14,7.68,1.43,11.42a43,43,0,0,1,1.84,7,6.93,6.93,0,0,1-.72,2.92.51.51,0,0,1-.37.34Z"/><path class="cls-2" d="M914.94,264.58a.41.41,0,0,1-.48-.53,17.43,17.43,0,0,1,1.06-3c4.08-7.43,10.25-12.93,16.88-17.95a5.66,5.66,0,0,1,7.35.54c2.62,2.47,5,5.16,7.54,7.74,1.8,1.86,4.12,1.45,4.94-1,1-3.06,3.38-3.17,5.92-.17,2.37,2.81,1.49,6.13.68,9a19.37,19.37,0,0,0,1.55,14.83c7.9,15.15,16,30.21,23.46,45.58,4.41,9.07,7.76,18.66,11.59,28a7.11,7.11,0,0,0,1,2.1,16.22,16.22,0,0,0,2.38,1.87,10.32,10.32,0,0,0,1.19-2.4c1.7-8.68,3.31-17.37,5-26,1.45-7.52,2.9-15,4.48-22.53,1.18-5.56,2.75-11.05,3.75-16.65a22.67,22.67,0,0,0-.14-8.21c-.29-1.52-1.81-2.91-3-4.1-2-1.93-2.05-4.09.33-5.17,4.68-2.13,7.37-6.21,10.35-10,1.75-2.23,3.35-4.57,4.91-7,2.76-4.21,4.63-5.18,7.45-3.7,3.88,2,5.58,5.76,4.31,9.28-2.09,5.78-4.78,11.27-9.11,15.69-4.75,4.83-6.37,10.87-7.64,17.19-1.06,5.29-2.44,10.52-3.59,15.8-1.58,7.29-3.06,14.6-4.6,21.9q-2.24,10.5-4.51,21c-1.79,8.27-3.49,16.55-3.17,25.08a5.4,5.4,0,0,0,.15,1.77c2.59,6.18-.19,11.25-3.26,16.31a5.42,5.42,0,0,1-6.27,2.7,4.36,4.36,0,0,1-3.26-5c1-8.92-3-16.55-6-24.36C981.8,351.67,977,340.24,972,329c-4.76-10.67-10-21.15-15.27-31.57-1-2-3.31-3.26-5-4.87A38.42,38.42,0,0,0,948.8,298c-4,11.59-7.86,23.23-11.77,34.85-2.24,6.7-4.74,13.32-6.61,20.11-1.2,4.34-1,8.8,2.35,12.54,1.64,1.85,3.42,3.91,2.56,6.57-.38,1.17-2,2.87-3,2.78-7-.72-10.88,2.94-13.61,8.66-.34.71-.71,1.4-1.07,2.1-2.65,5.17-3.53,5.2-9.32,2.31a16,16,0,0,1-2.11-1.6c-4.94-3.62-5.15-7.52-.59-11.86,2.7-2.57,5.66-4.92,8.16-7.68,6-6.59,8.55-14.94,11.49-23.06,3.41-9.42,6.84-18.82,10-28.33,2.69-8.19,5-16.51,7.42-24.79,1.08-3.67,2-7.39,3-11.08a10.14,10.14,0,0,0-1.64-9.27A81.32,81.32,0,0,0,934.79,260c-3.5-3.16-7.43-2.8-11.32.17a41.67,41.67,0,0,1-4.78,3.42A14.59,14.59,0,0,1,914.94,264.58Z"/><path class="cls-2" d="M802.67,304.79a.52.52,0,0,1-.58-.28c-1.48-3.08-3.07-6.12-4.38-9.28-1-2.43-1.56-5.06-2.45-7.55-1.59-4.43.84-10.89,5.92-13.14a80,80,0,0,1,16.41-5.38c10.14-2.07,20.17-4.29,29.64-8.57,2.5-1.13,5.25-1.75,7.61-3.09,2-1.12,3.54-2.91,5.24-4.45,1.11-1,2.16-3,3.21-3,2.83.06,5.63,2.86,5.24,5.4a35.55,35.55,0,0,1-3.09,10.9c-7.67,14.88-15.68,29.58-23.68,44.29-2.71,5-5.75,9.77-8.57,14.69a31,31,0,0,0-1.27,3.06,19.2,19.2,0,0,0,3.3.61q12,0,24-.13a5,5,0,0,0,4.88-4.36c1.18-9.08,2.48-18.15,3.73-27.22,1-7.4,1.77-14.85,3.18-22.18,1.62-8.43,1.9-17.25,6.44-25,2.29-3.88,6-5.94,9.92-7.49,2.35-.92,3.46.16,2.74,2.64-1.36,4.71-3.19,9.29-4.43,14C883.86,266.17,881.77,273,881,280c-2.45,21.71-4.45,43.47-6.38,65.23a83.31,83.31,0,0,0,2.23,26.68c.73,3,2.94,3.84,5.83,3.81a16.76,16.76,0,0,1,4,.93c-.81,1.61-1.22,3.79-2.52,4.73a91.57,91.57,0,0,1-10.9,6.45c-3.86,2-6.85.7-7.74-3.67a124.21,124.21,0,0,1-2.58-17.43c-.44-7.67-.09-15.38-.13-23.07,0-4.81-1.23-6.2-6-5.92-7.76.46-15.5,1.24-23.24,1.9-2.36.2-4.71.6-7.06.61a7.89,7.89,0,0,0-6.77,3.57c-4.29,6.13-8.47,12.33-12.75,18.46-1.31,1.89-1.21,3.63.61,4.91,3.67,2.56,4.95,6.52,6.27,10.41,1.22,3.59-.46,5.77-4.2,5.21-6.31-.94-11.58,1.22-16.6,4.67-2.19,1.5-4.43,2.93-6.72,4.27-3.85,2.27-7.17,1.16-11.11-3.6-1.78-2.15-1.42-5.41,1.37-8.16,5.27-5.17,10.78-10.1,16.09-15.24,2.48-2.39,4.72-5,7.08-7.55,3-3.22,5-6.83,4.44-11.43a30.9,30.9,0,0,1,0-3.85c.06-5.48,2.84-8.87,8.11-10,2-.45,4.19-.69,5.94-1.66a14,14,0,0,0,5-4.35c7.7-12.21,15.33-24.48,22.68-36.91,2.79-4.71,4.82-9.87,7.13-14.86a6.19,6.19,0,0,0,.54-2.58c0-.91-.07-2.21-.64-2.62s-1.87-.21-2.7.12c-10.87,4.26-21.69,8.66-32.58,12.87-6.75,2.6-14.14,8.89-13.31,18.14a14.76,14.76,0,0,1-.64,4.1.7.7,0,0,1-.53.54Z"/><path class="cls-2" d="M674.28,377.42c-.21-.3,2.27-12.64,3.65-18.94.65-2.93,1.75-3.2,4-1.53s3.81,1.38,4.76-1.29c1.15-3.22,1.95-6.57,2.84-9.88,2.16-7.94,4.27-15.9,6.44-23.84q3.48-12.78,7-25.54c1-3.59,2.16-7.14,3.23-10.71a10.2,10.2,0,0,0,.6-2.57c0-.8-.16-2.16-.58-2.31a3.28,3.28,0,0,0-2.68.38c-5.29,3.93-10.75,7.69-15.64,12.09-3.93,3.53-7.19,7.82-10.62,11.87s-3.11,8.24-1.21,12.71A32.25,32.25,0,0,1,678,323.1a3.19,3.19,0,0,1-.42,1.79,1.07,1.07,0,0,1-1.2.63,2.68,2.68,0,0,1-1.45-.6,66.87,66.87,0,0,1-4.86-6.27c-1.26-1.87-2-4.11-3.45-5.83-4.32-5.22-3.29-10.68-.12-15.55a64.29,64.29,0,0,1,10.68-12.48,315.11,315.11,0,0,1,35-27.55c2.28-1.55,3.71-4.42,5.36-6.81.82-1.19,1.16-2.7,1.87-4,1.95-3.54,2.27-3.64,6-1.83,4.11,2,8,.93,11.56-1.15,6-3.56,11.61-3.46,17.48.22,5,3.11,10.55,5.37,15.16,8.92,7.17,5.52,10.45,13.07,8.87,22.34-1,6.18-1.86,12.39-3,18.54a75.29,75.29,0,0,1-2.42,9.25c-3.15,9.66-6.15,19.39-9.63,28.93a202.25,202.25,0,0,1-25.25,48.48c-6,8.37-11.9,11.81-22.83,6.62-4-1.88-7.54-4.6-11.26-7a20.63,20.63,0,0,1-3.55-2.65c-.65-.65-1.49-2.06-1.21-2.52.5-.85,1.86-1.87,2.68-1.73a74.27,74.27,0,0,1,8.23,2.14c2.08.58,4.13,1.32,6.24,1.76,5.29,1.11,9.52-1.1,12.17-5.37,6.27-10.09,12.46-20.26,18-30.76,6.13-11.56,10.46-23.92,13.91-36.54,2-7.19,3.46-14.51,5-21.8.79-3.64,1.29-7.35,2-11,1.55-8-1.46-14.73-8.61-17.81a12,12,0,0,0-7.7-.69c-7.46,2.39-14.73,5.4-22.05,8.25a17.08,17.08,0,0,0-9.74,10.13c-2.79,7-5.45,14.06-7.82,21.21-2.23,6.69-4,13.53-6,20.32q-2.47,8.78-4.77,17.6c-1.7,6.55-3.42,13.09-4.94,19.68-1.62,7-3,14-4.51,21-1.37,6.34-2.64,12.7-4.21,19-.78,3.12-6,4.08-8.65,1.27-1.77-1.84-2.81-4.6-3.52-7.13-.56-2-.11-4.31-.11-6.48C674.8,377.58,674.49,377.72,674.28,377.42Z"/><path class="cls-2" d="M11.25,277.78c-.7-1.6-1.78-3.14-2-4.81A69.9,69.9,0,0,1,10,248.88a10.4,10.4,0,0,1,7.2-8.31A30.58,30.58,0,0,1,29,239c8.21.77,16.31,2.66,24.51,3.51,3,.31,6.1-1.06,9.4-1.71.58,4.5,4.57,5.83,8.83,6.91,6.08,1.54,12.15,3.16,18.21,4.76,3.51.93,7,2.12,10.5,2.81,4.4.85,7.46-1.67,10.08-4.83,3.41,3.5,4,12.47.4,15.46a10.28,10.28,0,0,1-7.56,2.12c-11.74-2.29-23.38-5.11-35-7.84-5.78-1.35-7.9-.22-9.33,5.75C56.59,276,54.36,286,52.1,296c-.49,2.2-.8,4.44-1.27,6.64s.63,2.83,2.59,2.76c3.84-.14,7.7-.1,11.53-.37,7.18-.52,14.33-1.37,21.51-1.68,1.79-.08,4.37.81,5.33,2.15,2.67,3.75,4.3,8,1.79,12.65-.44.8-1.2,1.84-2,2-4,.75-8,1.49-12.07-.7-5-2.69-10.43-3.29-16.05-2.69-3.92.42-7.88.44-11.78,1-1.34.18-3.25,1.07-3.7,2.14a125.61,125.61,0,0,0-6.19,16.78c-2.76,10.57-5.62,21.05-11.16,30.58-1.47,2.53-1.23,3.06,1.61,3.26,13.07.93,26.14,1.81,39.22,2.72,1.77.12,3.54.23,5.3.43,7.82.93,8.36,2.37,15.52-4.17,2.26,5.53,5.25,10.65,2.6,16.88-1.72,4-8,6.29-12.76,4.31a85.82,85.82,0,0,0-31.29-6.28c-10.54-.22-21.09,0-31.63-.16-3.88-.07-6.78,1.69-9.65,3.79-5.9,4.33-7.37,3.73-8.67-3.64-.35-2-1.24-4.11-.82-5.92.9-3.93,3.81-5.6,7.94-5.63a29.77,29.77,0,0,0,7.57-.57c5.93-1.63,8.73-6.34,10.51-11.79q3.8-11.61,7.47-23.24a73.61,73.61,0,0,0,1.95-7.42,14.21,14.21,0,0,0-1.91-9.94c-2.54-4.52-1.35-8.72,4.34-10.9a9.76,9.76,0,0,0,5.25-5.42c1.91-6.27,3-12.8,4.4-19.22,1.09-4.89,2.26-9.76,3.32-14.66.66-3.07,1.32-6.15,1.73-9.26a4.3,4.3,0,0,0-3.52-5.09c-8.84-1.87-17.73-2.57-26.65-.4-5,1.21-7.75,4.62-8.73,9.36-.7,3.44-.74,7-1.1,10.52-.1.92-.31,1.83-.46,2.75Z"/><path class="cls-2" d="M425.86,352.2c-.44-9.83,1.7-19.32,3.66-28.87A186.23,186.23,0,0,1,441.82,286a201.05,201.05,0,0,1,20.51-36.76c2.55-3.54,5.5-7.3,10.74-6.62a16.93,16.93,0,0,1,5.75,2c3,1.64,5.88,3.56,8.74,5.48a3.63,3.63,0,0,0,5.23-.5c3.06-3.07,6.13-6.12,9.32-9.05,4-3.66,7.77-5.1,12.77-.68,3.16,2.79,7,3.89,10.74,5.2,3.36,1.15,5.25,3.44,4.88,7.15-.79,7.72-1.48,15.46-2.48,23.16a161.63,161.63,0,0,1-3,17.39c-2,8.39-4.19,16.78-7,24.92-3.93,11.29-8.27,22.46-12.92,33.47-4.76,11.26-10.27,22.14-20.08,30.13-6.15,5-12.67,9.11-21,8.61a23.71,23.71,0,0,1-7.09-1.56,198.63,198.63,0,0,1-18.42-7.76c-8.24-4.2-12-11.53-12.58-20.61C425.72,357.34,425.86,354.77,425.86,352.2Zm44.69-66.76h0a1,1,0,0,1-.2-1.19c1.37-2.84,2.65-5.72,4.19-8.46,3.44-6.14,7.09-12.17,10.53-18.32a3,3,0,0,0-.42-2.57,7,7,0,0,0-11.25-.21c-5.28,6.95-10.78,13.92-14.73,21.64a317.55,317.55,0,0,0-14.18,33.26,113,113,0,0,0-6.05,22.35c-1.21,7.83-1,15.9-1.27,23.86-.46,11.92,5.46,19.82,16,24.42a16.37,16.37,0,0,0,8.49,1.37c7.34-1.1,12.87-5.66,17.71-11,9-9.9,14.52-21.92,19.84-34a197.32,197.32,0,0,0,13.51-42.55c1.8-9.45,3.32-18.95,4.89-28.44.54-3.3,1.31-6.67,1.09-9.94a10.14,10.14,0,0,0-3.12-5.86c-1.81-1.74-4.14-.7-5.9.76-9.72,8-19.29,16.2-27.44,25.93-2.62,3.14-6,5.62-9.15,8.33a5.24,5.24,0,0,1-1.72.8A.81.81,0,0,1,470.55,285.44Z"/><path class="cls-2" d="M192,374.36a52.62,52.62,0,0,1,3.47,5.53c2.3,4.87.55,13.58-3,15.75-3.75,2.27-7.64,1-11.48.26-8.46-1.64-16.86-3.74-25.39-4.83a211,211,0,0,0-23.87-1.24,56.6,56.6,0,0,0-12,1.35c-1.32.27-2.78,1.86-3.39,3.2-1,2.22-2.35,3.63-4.75,3.8a4.06,4.06,0,0,1-4.37-3.26c-.82-2.85-2.19-5.91-1.79-8.65.54-3.73,3.71-5.86,7.52-6.55,1.94-.35,3.9-.62,5.85-.88a8.4,8.4,0,0,0,7.24-6.2c3.35-11.18,6.28-22.49,9.57-33.69,7.57-25.75,16.06-51.16,29.13-74.75a130.1,130.1,0,0,1,10.17-14.82c3.53-4.68,9.6-5.48,15.8-2.12,3.52,1.91,7,3.43,11.09,3.47,3.11,0,4.83,2.25,5,5.47.81,14.72-.93,29-6.44,42.82-.88,2.21-1.88,3.35-4.29,2.85a10.41,10.41,0,0,0-1.48-.1c-5.17-.25-5.55-.93-3.87-6a126.87,126.87,0,0,0,5.87-29.13,33.65,33.65,0,0,0,.05-5c-.41-6.26-4.91-8.54-10.31-5.41-5.17,3-8,7.75-11.07,12.68a183.39,183.39,0,0,0-15.63,30.68c-3.7,9.6-6.93,19.39-10.24,29.14-2.09,6.12-4,12.31-5.91,18.49q-4.14,13.33-8.17,26.71c-.75,2.51.56,4.13,3.34,4.32,7.77.52,15.54,1,23.31,1.51q8,.57,15.88,1.34c5.71.54,11.05.44,13.14-6.68Z"/><path class="cls-3" d="M645.44,120.33a20.15,20.15,0,0,0-.59,3.47c0,17.76,0,35.51-.06,53.27,0,2.82,1.17,3.85,3.88,3.88,4.22.05,4.21.14,4.22,4.3,0,8.51,0,8.51-8.51,8.51-4.74,0-9.47-.08-14.2,0-2.24,0-3.31-.59-3.15-3a67.26,67.26,0,0,0,0-7.1c-.08-2.06.83-2.73,2.81-2.8,4.61-.18,5-.65,5-5.28V123.54c0-4.75-.29-5.15-4.93-5.26-2.21,0-3-.93-2.88-3s-.16-4.36.14-6.49c.11-.8,1.32-2,2-2.06,8.58-.15,17.17-.19,25.74,0,1,0,2.55,1.55,2.92,2.67,2.07,6.33,3.83,12.75,5.75,19.13,2.48,8.24,5,16.47,7.52,24.71q1.05,3.45,2.08,6.89l1.08.17a27.59,27.59,0,0,0,1.93-3.89c2.57-8,5-16.06,7.57-24.1,2.42-7.76,4.92-15.49,7.2-23.29.47-1.64,1.12-2.4,2.74-2.4,9.17,0,18.34,0,27.52,0,1.58,0,2.4.6,2.32,2.27-.06,1.18,0,2.37,0,3.55,0,5.15,0,5.19-5,5.89-2.47.35-2.86,2-2.85,4,0,8.19,0,16.38,0,24.56q0,14.66,0,29.3c0,4.07.54,4.76,4.56,4.69,2.66,0,3.5,1,3.32,3.5-.17,2.35-.09,4.73,0,7.09,0,1.64-.65,2.31-2.28,2.31q-13.6-.06-27.22,0c-1.63,0-2.33-.78-2.32-2.35,0-2.56,0-5.13,0-7.69,0-2,.93-2.73,2.88-2.82,4.63-.2,4.83-.47,4.83-5q0-25.15,0-50.3a2.86,2.86,0,0,0,0-.88c-.39-1.29-.82-2.57-1.23-3.85a27.87,27.87,0,0,0-1.48,3.19c-3.41,10.52-6.85,21-10.14,31.6-3.77,12.06-7.34,24.17-11.18,36.2-.27.87-2,1.61-3.09,1.81-1.48.27-3.13.36-3.77-1.81-2.23-7.62-4.55-15.21-6.88-22.8-2.51-8.14-5.09-16.26-7.6-24.4-2.33-7.58-4.61-15.18-6.94-22.76a10.75,10.75,0,0,0-.74-1.53Z"/><path class="cls-4" d="M973.11,127.69a21.25,21.25,0,0,0-.89,3.88c.09,15.29.27,30.58.34,45.87,0,2.55,1.1,3.48,3.58,3.51,4.36.06,4.36.15,4.36,4.41,0,8.4,0,8.4-8.3,8.4-5.72,0-11.45-.08-17.16,0-2.24,0-3-.76-2.85-2.94a51.43,51.43,0,0,0,0-6.8c-.16-2.27.62-3.38,3-3.14.58.06,1.18,0,1.77,0,2.73.06,4-1.32,3.95-4,0-4.44,0-8.88,0-13.32q0-20,0-40c0-4.8-.54-5.46-5.18-5.37-2.65.06-3.6-.72-3.56-3.51.11-8.21,0-8.21,8.24-8.21,5.62,0,11.25.09,16.87,0a4.13,4.13,0,0,1,4.36,2.67q8.05,17,16.21,34c2.75,5.75,5.5,11.5,8.33,17.21a16,16,0,0,0,2.38,2.66,15,15,0,0,0,.84-3.17c-.22-12.52-.54-25-.75-37.56,0-3-1.31-4.22-4.34-4.17-4.11.07-4.11-.06-4.11-4.29,0-7.34,0-7.34,7.4-7.34,5.72,0,11.45.16,17.16-.06,3.09-.13,4.15,1,3.73,3.91a14.28,14.28,0,0,0,0,2.07c0,5.29,0,5.37-5.12,5.75-2.44.18-2.83,1.6-2.83,3.6q0,13.17,0,26.34c0,13.9-.08,27.81.06,41.72,0,2.9-.65,4.19-3.77,3.91a52,52,0,0,0-8.28,0,3.78,3.78,0,0,1-4.1-2.54q-10.76-22.47-21.59-44.89c-2.65-5.48-5.38-10.92-8.1-16.36A22.74,22.74,0,0,0,973.11,127.69Z"/><path class="cls-5" d="M516.17,106.57c6.41,0,12.82.06,19.23,0,2.13,0,3.17.66,2.94,2.89a26.22,26.22,0,0,0,0,2.66c0,5.48,0,5.5-5.32,6.18-2,.26-2.69,1.26-2.19,3.25,2.56,10.25,5,20.51,7.61,30.76,2.16,8.64,4.26,17.29,6.68,25.86.33,1.17,2.29,2.48,3.62,2.62,2.51.27,3.18,1.33,3.06,3.6s-.07,4.74,0,7.1c0,1.62-.7,2.31-2.32,2.3q-12,0-24,0c-1.8,0-2.45-.82-2.42-2.52.05-2.56.05-5.13,0-7.69,0-1.91.88-2.54,2.7-2.65,4.31-.28,4.8-1.23,3.62-5.4a92.68,92.68,0,0,1-2.21-9.74c-.43-2.47-1.7-3.64-4.16-3.64-4.44,0-8.88-.12-13.31,0-4.66.16-4.15.3-5.69,5.21-1,3.17-1.2,6.56-2.05,9.78-.73,2.75.43,3.6,2.89,3.77,4.22.28,4.22.31,4.22,4.62,0,8.22,0,8.22-8.21,8.22-5.72,0-11.44-.07-17.16,0-2.19,0-3-.78-2.9-2.94.12-2.46.07-4.93,0-7.39,0-1.73.71-2.42,2.45-2.55,4.88-.35,5-.37,6.26-5.1,2.05-8,3.78-16,5.79-24q3.66-14.52,7.58-29c.91-3.35.17-4.59-3.36-4.63-6.22-.07-5.52.49-5.49-5.62,0-6.83-1.12-6,6.15-6.06C505.52,106.54,510.85,106.57,516.17,106.57Zm-.15,12.9-1,.18c-.69,2.61-1.45,5.21-2.06,7.83-1.65,7.13-3.19,14.28-4.88,21.4-.62,2.59-.05,3.84,2.65,4,3.33.2,6.69.13,10,.06,2.07,0,3-1.2,2.67-3.31-.17-1.07-.24-2.16-.47-3.21-1.74-7.82-3.47-15.63-5.31-23.43A18.2,18.2,0,0,0,516,119.47Z"/><path class="cls-6" d="M913.13,193.76c-8.67,0-17.35-.07-26,0-2.48,0-3.36-.86-3.21-3.27a67.06,67.06,0,0,0,0-6.8c-.07-2,.83-2.75,2.81-2.83,4.19-.17,4.39-.46,4.4-4.76q0-26.64,0-53.26c0-4.53-.1-4.71-4.53-4.82-2.11-.06-2.72-1-2.68-2.9.2-10.44-1.44-8.73,8.33-8.8,15.19-.09,30.38,0,45.57,0,4.34,0,4.35,0,4.36,4.21,0,6.21-.09,12.43,0,18.64,0,2.47-.88,3.2-3.29,3.2-8,0-8,.1-8-7.78,0-7.3.43-6.56-6.5-6.58-4.54,0-9.08.07-13.61,0-2.48,0-3.65.91-3.63,3.44.05,5.72,0,11.44,0,17.16,0,2,.92,2.83,2.88,2.81,4.44,0,8.88.06,13.31,0,1.9,0,2.68.58,2.59,2.54-.12,2.75-.13,5.52,0,8.28.1,2.05-.67,2.82-2.72,2.78-4.14-.09-8.29.06-12.43,0-2.64-.06-3.72,1-3.66,3.66.11,6.11.08,12.22,0,18.34,0,2.66,1,4,3.8,4q8.28-.12,16.56,0c2.59,0,3.52-1.11,3.42-3.59-.11-2.86,0-5.72,0-8.58,0-1.69.49-2.62,2.33-2.58,2.17.05,4.34,0,6.51,0,1.76,0,2.44.84,2.44,2.55,0,7.5,0,15,0,22.49,0,2.24-1.19,2.55-3,2.54C930.49,193.74,921.81,193.76,913.13,193.76Z"/><path class="cls-7" d="M763.53,106.57c6,0,12,.08,18.05,0,2.32-.05,3.21.79,3.06,3.1a45.49,45.49,0,0,0,0,6.5c.17,2.42-.91,3.2-3.14,3a15.79,15.79,0,0,0-2.66.06c-1.71.12-2.12,1.1-1.74,2.66q3.92,16,7.78,31.95c1.78,7.32,3.48,14.65,5.37,21.94.67,2.6,1.19,5.57,5.1,5.36.54,0,1.59,1.21,1.64,1.92a55.72,55.72,0,0,1,0,8.57,3,3,0,0,1-2.05,2.07q-11.53.22-23.08,0c-.7,0-1.88-1.31-2-2.1-.26-2.54,0-5.13-.14-7.69-.1-2.18.78-2.94,2.93-3,3.46-.07,4.2-1,3.52-4.39-.78-3.84-1.63-7.68-2.77-11.42a3.62,3.62,0,0,0-2.76-1.91c-5.22-.19-10.45-.06-15.68-.11-2.59,0-3,1.94-3.4,3.73-.87,3.71-1.6,7.45-2.32,11.18-.42,2.17,1,2.74,2.75,2.93,4.49.48,4.54.49,4.49,5-.11,9,1.32,7.75-7.82,7.83-5.42.05-10.85-.06-16.27.05-2.21,0-3-.76-2.89-2.94a70.06,70.06,0,0,0,0-7.1c-.08-2,.68-2.8,2.73-2.87,3.85-.12,4.71-1.26,5.53-5,1.45-6.68,3.21-13.3,4.8-20,1-4.28,1.95-8.59,3-12.87,1.16-4.86,2.38-9.7,3.57-14.55.56-2.28,1.15-4.55,1.63-6.85.38-1.85-.67-2.38-2.34-2.51-6.31-.48-6.31-.51-6.31-7,0-5.54,0-5.54,5.43-5.54Zm.14,12.64c-.77.63-1.24.81-1.32,1.1-.62,2.24-1.17,4.5-1.74,6.75-1.23,4.83-2.52,9.65-3.65,14.5a49.72,49.72,0,0,0-1.38,8.37c-.05,1,1.18,2.8,1.94,2.87a79.92,79.92,0,0,0,10.61,0c1.53-.09,2.86-.86,2.42-2.91-1.69-7.92-3.34-15.86-5.06-23.78C765,124,764.37,121.83,763.67,119.21Z"/><path class="cls-8" d="M872.05,120.91c0,3.85,0,7.7,0,11.54,0,1.86-.73,2.79-2.65,2.64a4.24,4.24,0,0,0-1.18,0c-4,.65-6.42-.73-8.39-4.53-2.94-5.7-7.34-10.11-14-11.77A18.82,18.82,0,0,0,825,128c-2.9,5.47-4.88,11.19-4.43,17.5.4,5.67.16,11.51,1.49,17,1.89,7.76,5.88,14.34,14.54,16.65a18.19,18.19,0,0,0,17.07-3.87,27.52,27.52,0,0,0,9.08-14.53c.47-1.77,1.18-2.47,2.87-1.54,2.67,1.47,5.36,2.92,7.92,4.55.65.41,1.39,1.65,1.21,2.24-3.84,12.37-10.79,22.4-23.73,26.09-19.45,5.55-35-2.11-44-20.16-4.29-8.66-4.75-17.87-4.45-27.32a45.43,45.43,0,0,1,6.73-22.9c4.9-7.89,11.74-14,20.89-15.8,10.31-2,20.74-1.88,28.74,7,.71.79,1.94,1.1,2.93,1.64.29-1.08.63-2.15.88-3.24.34-1.46.36-4.07.94-4.2a24.63,24.63,0,0,1,7.28-.13c.43,0,1,1.59,1,2.45C872.12,113.21,872.05,117.06,872.05,120.91Z"/><path class="cls-9" d="M587.5,193.76c-9.17,0-18.35-.09-27.52.06-2.65,0-3.61-.86-3.29-3.41a24.36,24.36,0,0,0,0-3c0-5.89,0-5.94,5.81-6.54,2.65-.27,3.08-1.95,3.08-4.15,0-9.27,0-18.54,0-27.81,0-8.78,0-17.56,0-26.34,0-3.66-.68-4.3-4.32-4.37-4.55-.08-4.55-.08-4.55-4.51,0-7.16,0-7.16,7.18-7.16,8.19,0,16.38.07,24.56,0,2.44,0,3.49.8,3.22,3.25a20.61,20.61,0,0,0,0,2.36c0,5.48,0,5.55-5.39,6.11-2.53.26-2.62,1.91-2.62,3.79q0,15.24,0,30.48c0,8.19.07,16.38,0,24.56,0,2.79,1,3.93,3.81,3.87,5.33-.11,10.66-.06,16,0,2.6,0,3.73-1.13,3.7-3.78-.08-6.9,0-13.81-.06-20.71,0-2.23.56-3.14,3-3.16,8.14-.07,8.14-.15,8.14,8,0,9.76-.06,19.53.05,29.29,0,2.43-.71,3.27-3.19,3.24C605.85,193.69,596.68,193.76,587.5,193.76Z"/><path class="cls-10" d="M927.79,78.81A47.35,47.35,0,0,1,925.54,83c-3.21,4.71-6.59,9.3-9.69,14.08a4.08,4.08,0,0,1-4.07,2.19c-2-.11-4,0-6.7,0,1.3-3.12,2.29-5.51,3.29-7.9,1.33-3.16,2.71-6.3,4-9.48.86-2.1,2-3.31,4.62-3.11C920.38,79,923.79,78.81,927.79,78.81Z"/><path class="cls-2" d="M869.69,229.17c1.42-3.27,2.45-6.79,4.35-9.76a131.72,131.72,0,0,1,10-13.42c2.6-3.09,6.27-3,9.07-.25,2.07,2,1.72,4.42-1,5.26-5.18,1.6-8.64,5.26-11.91,9.24-2,2.42-4,4.9-6.09,7.2a21,21,0,0,1-3.53,2.51C870.49,230.12,869.45,229.48,869.69,229.17Z"/><path class="cls-11" d="M529.63,454.36c0,7.81-4.42,12.38-12.17,12.38h-12.1v-4H508V445.83h-2.63V442h12.1C525.21,442,529.63,446.55,529.63,454.36Zm-13.81,8.46c4.95,0,7.26-2.79,7.26-8.57s-2.56-8.49-7.72-8.49c-.43,0-.89,0-1.36.07v16.88A16.88,16.88,0,0,0,515.82,462.82Z"/><path class="cls-11" d="M553.89,445.19a13.64,13.64,0,0,1,0,18.41,13.59,13.59,0,0,1-18.47,0,12.8,12.8,0,0,1-3.63-9.24,12.35,12.35,0,0,1,3.59-9.17,13.07,13.07,0,0,1,9.47-3.68A12.31,12.31,0,0,1,553.89,445.19Zm-3.06,9.1c0-5.24-2.56-8.49-6.22-8.49s-6.23,3.25-6.23,8.49,2.6,8.49,6.23,8.49S550.83,459.53,550.83,454.29Z"/><path class="cls-11" d="M566.24,462.71h2.7v4h-9.85v-4h2.74V445.83h-2.74V442h9.64l9.14,16-.17-12.17H575V442h9.86v3.85h-2.74v20.91h-5.3L566.1,448.08Z"/><path class="cls-11" d="M610.11,454.36c0,7.81-4.41,12.38-12.17,12.38H585.85v-4h2.63V445.83h-2.63V442h12.09C605.7,442,610.11,446.55,610.11,454.36Zm-13.8,8.46c4.94,0,7.26-2.79,7.26-8.57s-2.57-8.49-7.73-8.49c-.42,0-.89,0-1.35.07v16.88A16.88,16.88,0,0,0,596.31,462.82Z"/><path class="cls-11" d="M628,458.64h4.45v8.1H611.75v-4h2.63V445.83h-2.63V442h20.71v7.67H628v-3.82H620.4v6.07h6.3V456h-6.3v6.74H628Z"/><path class="cls-11" d="M649.65,445.83v16.88h2.56v4h-9v-4h2.56V445.83h-2.56V442h10.28l5.41,15.27L664.52,442h10.85v3.85h-2.56v16.88h2.56v4h-11v-4H667V445.83l-7.61,20.91h-2.24Z"/><path class="cls-11" d="M675.19,462.71h2.71l5.44-16.88H680V442h16.47v3.85h-3L699,462.71h2.24v4h-11v-4h2.63l-1.35-4.64h-7.15l-1.32,4.64h2.74v4H675.19Zm15.52-7.85L688,445.69l-2.71,9.17Zm-2.85-15.23h-2.45l3.41-6.46h4.49Z"/><path class="cls-11" d="M702.52,458.25h4c0,3.17,1.56,4.82,4.34,4.82,2,0,3.2-1.11,3.2-2.64,0-1.68-1.14-2.57-3.48-3.71L707,455c-3.27-1.57-4.76-3.53-4.76-6.49a6.75,6.75,0,0,1,7.11-7,8.5,8.5,0,0,1,5.41,1.89V442h4v7.35h-4a3.65,3.65,0,0,0-3.77-3.89,2.5,2.5,0,0,0-2.81,2.46c0,1.36.85,2.11,2.63,2.93l3.24,1.46c4,1.82,6,4.21,6,7.71,0,4.31-3,7.28-7.44,7.28a9.41,9.41,0,0,1-6.12-2.11v1.57h-4Z"/><path class="cls-11" d="M751,448.58c0,2.57-1.1,4-3.77,5a6.26,6.26,0,0,1,4.55,6.17c0,4.56-2.88,7-8.5,7h-12v-4h2.63V445.83h-2.63V442h10.78C748.07,442,751,444.12,751,448.58ZM741.3,452c2.64,0,3.92-1,3.92-3.14,0-2.28-1.14-3.14-3.77-3.14h-1.64V452Zm.4,10.78c2.91,0,4.23-.9,4.23-3.25,0-2.53-1.56-3.89-4.66-3.89h-1.46v7.14Z"/><path class="cls-11" d="M752.51,462.71h2.71l5.44-16.88h-3.34V442h16.47v3.85h-2.95l5.48,16.88h2.24v4h-11v-4h2.63l-1.35-4.64h-7.15l-1.32,4.64h2.74v4H752.51ZM768,454.86l-2.67-9.17-2.71,9.17Z"/><path class="cls-11" d="M789.7,462.71v4H778.42v-4h2.63V445.83h-2.63V442h11.67c6.47,0,9.43,1.93,9.43,7,0,3.17-1.46,5.21-4.2,5.89l4,7.88h2.82v4h-6.91l-5.58-10.92h-2.57v6.89Zm-2.64-10.81h1.6c3.1,0,4.52-.75,4.52-3s-1.42-3-4.52-3h-1.6Z"/><path class="cls-11" d="M801,462.71h2.7l5.45-16.88h-3.35V442h16.48v3.85h-2.95l5.48,16.88h2.24v4h-11v-4h2.63l-1.35-4.64h-7.15l-1.32,4.64h2.74v4H801Zm15.52-7.85-2.67-9.17-2.71,9.17Z"/><path class="cls-11" d="M842.32,466.74H829.48v-4h3.41V445.83h-3.45v5.78h-4V442h20.92v9.63h-4v-5.78h-3.48v16.88h3.41Z"/><path class="cls-11" d="M870,445.19a13.64,13.64,0,0,1,0,18.41,13.59,13.59,0,0,1-18.47,0,12.8,12.8,0,0,1-3.63-9.24,12.35,12.35,0,0,1,3.59-9.17,13,13,0,0,1,9.47-3.68A12.31,12.31,0,0,1,870,445.19Zm-3.06,9.1c0-5.24-2.56-8.49-6.23-8.49s-6.22,3.25-6.22,8.49,2.59,8.49,6.22,8.49S866.91,459.53,866.91,454.29Z"/><path class="cls-11" d="M901.14,466.74H888.3v-4h3.41V445.83h-3.45v5.78h-4V442H905.2v9.63h-4v-5.78h-3.48v16.88h3.41Z"/><path class="cls-11" d="M922.42,458.64h4.45v8.1H906.16v-4h2.63V445.83h-2.63V442h20.71v7.67h-4.45v-3.82H914.8v6.07h6.3V456h-6.3v6.74h7.62Z"/><path class="cls-11" d="M961.91,454.36c0,7.81-4.41,12.38-12.16,12.38h-12.1v-4h2.63V445.83h-2.63V442h12.1C957.5,442,961.91,446.55,961.91,454.36Zm-13.8,8.46c4.94,0,7.26-2.79,7.26-8.57s-2.56-8.49-7.72-8.49c-.43,0-.89,0-1.36.07v16.88A16.88,16.88,0,0,0,948.11,462.82Z"/><path class="cls-11" d="M962.27,462.71H965l5.45-16.88h-3.35V442h16.48v3.85H980.6l5.48,16.88h2.24v4h-11v-4H980l-1.35-4.64h-7.15l-1.32,4.64h2.74v4H962.27Zm15.51-7.85-2.66-9.17-2.71,9.17Zm-2.84-15.23h-2.46l3.42-6.46h4.48Z"/><path class="cls-11" d="M995.33,462.71H998v4h-9.86v-4h2.74V445.83h-2.74V442h9.65l9.14,16-.18-12.17h-2.7V442h9.86v3.85h-2.74v20.91h-5.3l-10.72-18.66Z"/></g></g></svg>